<svg xmlns="http://www.w3.org/2000/svg" version="1" viewBox="0 0 80.5 87.875"><linearGradient id="a" x1="17.0317" x2="57.1982" y1="8.2085" y2="72.042" gradientUnits="userSpaceOnUse"><stop offset="0" stop-color="#D5B64E"/><stop offset=".5055" stop-color="#E6C851"/><stop offset="1" stop-color="#C5A343"/></linearGradient><path fill="url(#a)" d="M40.125 1.625l-9.5 21.5-13.333 1.667-15.667-1.834 13.333 17.834 3.5 3.666L1.625 66.625l28.833-3 9.334 24 11.5-22.833 27.833 1.666-16.667-22.166 16.334-20.834-25.167 2.334-6.833-10.834"/><path fill="#996C1C" d="M40.167 1.667v25.375l6.25-12.875"/><path fill="#8E5F13" d="M78.771 23.479l-17.938 9.5 4.876 7.188"/><path fill="#AA812B" d="M79.188 66.5l-23.5-14.062 8.104-6.396"/><path fill="#936617" d="M39.833 87.542V62.354l9.084 7.188"/><path fill="#B99438" d="M1.646 66.563l23.937-14.375 5.23 11.375"/><path fill="#D2B34D" d="M1.708 22.979l12.938 6.75 1.979-5.021"/><path fill="#BA9435" d="M63.25 65.625l.875-7.875-8-3.375-4.833 10.417" opacity=".3"/><path fill="#9B7122" d="M68.375 52.125l-6-8.25-6.25 10.5 8 3.375" opacity=".3"/><path fill="#7E5212" d="M68.292 29l3.125 3.875-5.042 6.438-2.958-7.563"/><path fill="#9A674B" d="M17.304 47.007s4.971 3.272 2.19 5.368c-2.78 2.098-2.695 2.265-.505 6.879 2.192 4.613 3.455 4.36 4.803 3.271 1.349-1.091 3.624-1.846 5.394 1.426 1.77 3.271 2.696 4.11 2.275 7.465-.421 3.354 2.191 3.943 3.118 3.943.926 0-1.264-4.445.759-4.111 2.022.336-.338 6.542 2.358 6.542 2.698 0 2.698-1.761 2.36-3.942-.338-2.181 1.77-2.601 1.685-.251-.083 2.349-.673 4.36 1.264 4.278 1.938-.084 2.529-3.859 2.865-5.284.338-1.426 1.181-1.678 1.264-.168.086 1.51-.335 3.691 1.265 2.852 1.602-.839 2.358-2.684 2.695-7.046.338-4.361 3.034-6.961 5.731-6.039 2.696.923 3.454 1.258 4.551-.587 1.094-1.845 5.141-6.123 2.19-8.136-2.949-2.014-2.275-3.523-.086-5.201 2.192-1.678 10.197-12.498 1.35-24.157C55.981 12.45 42.753 14.043 40.141 13.96s-17.695-.168-24.353 11.408c-6.659 11.573-2.023 18.116 1.516 21.639z"/><radialGradient id="b" cx="35.2915" cy="30.125" r="43.1567" gradientUnits="userSpaceOnUse"><stop offset=".2418" stop-color="#9B13A2"/><stop offset=".8352" stop-color="#490069"/></radialGradient><path fill="url(#b)" d="M17.625 46.958s4.917 3.25 2.167 5.333-2.667 2.25-.5 6.833 3.417 4.333 4.75 3.25 3.583-1.833 5.333 1.417 2.667 4.083 2.25 7.417 2.167 3.917 3.083 3.917-1.25-4.416.75-4.083-.334 6.5 2.333 6.5 2.667-1.75 2.333-3.917 1.75-2.583 1.667-.25-.667 4.333 1.25 4.25c1.917-.083 2.501-3.833 2.833-5.25.334-1.417 1.168-1.667 1.25-.167.084 1.5-.332 3.667 1.25 2.833 1.584-.833 2.332-2.667 2.666-7s3-6.917 5.668-6c2.666.917 3.416 1.25 4.5-.583 1.082-1.833 5.084-6.083 2.166-8.083-2.916-2-2.25-3.5-.084-5.167 2.168-1.667 10.084-12.417 1.334-24s-21.833-10-24.417-10.083-17.5-.167-24.083 11.333-1.999 18 1.501 21.5z"/><radialGradient id="c" cx="28.875" cy="26.375" r="22.7624" gradientUnits="userSpaceOnUse"><stop offset=".3736" stop-color="#F4F0F4"/><stop offset="1" stop-color="#C2BDC7"/></radialGradient><path fill="url(#c)" d="M36.25 50.188s1.688.313 1.5 1.625S33.5 54 28.813 53.75s-9.125-5.875-6.375-7.75 6.875-1.938 8.813.563 4.999 3.625 4.999 3.625zm9.14.062s-1.671.313-1.485 1.625 4.208 2.188 8.85 1.938 9.035-5.875 6.313-7.75-6.808-1.938-8.727.563c-1.919 2.499-4.951 3.624-4.951 3.624zm-6.015 15.375v-6.563c-3.625 3.751 0 6.563 0 6.563zm2.889-6.5v6.563s3.625-2.813 0-6.563zM24.875 31.25c.01 7.534 6.849 13.528 15.167 13.542 8.317-.014 15.155-6.008 15.167-13.542-.012-7.535-6.85-13.53-15.167-13.541-8.318.011-15.157 6.005-15.167 13.541zm6.108 0c.01-4.35 3.997-7.972 9.059-7.976 5.061.004 9.05 3.626 9.058 7.976-.008 4.349-3.997 7.97-9.058 7.977-5.062-.008-9.049-3.629-9.059-7.977zm8.975-4.959c-2.945 0-5.333 2.201-5.333 4.917 0 2.715 2.388 4.917 5.333 4.917 2.947 0 5.334-2.201 5.334-4.917 0-2.716-2.387-4.917-5.334-4.917z"/></svg>